<svg width="56" height="19" viewBox="0 0 56 19" fill="none" xmlns="http://www.w3.org/2000/svg">
<path d="M19.644 15L21.758 5.004H26.798L26.658 5.732H22.402L21.534 9.862H25.524L25.37 10.576H21.38L20.442 15H19.644ZM26.1739 15L27.7559 7.552H28.5539L26.9719 15H26.1739ZM28.5679 6.012C28.4186 6.012 28.2972 5.97 28.2039 5.886C28.1199 5.802 28.0779 5.68067 28.0779 5.522C28.0779 5.40067 28.1012 5.284 28.1479 5.172C28.1946 5.06 28.2646 4.97133 28.3579 4.906C28.4512 4.84067 28.5632 4.808 28.6939 4.808C28.8526 4.808 28.9692 4.85467 29.0439 4.948C29.1279 5.032 29.1699 5.13933 29.1699 5.27C29.1699 5.47533 29.1092 5.65267 28.9879 5.802C28.8666 5.942 28.7266 6.012 28.5679 6.012ZM29.4278 15L31.6818 4.36H32.4798L30.2118 15H29.4278ZM34.5717 15.14C34.0957 15.14 33.7177 15.0233 33.4377 14.79C33.1577 14.5567 33.0177 14.188 33.0177 13.684C33.0177 13.5533 33.0271 13.4133 33.0457 13.264C33.0644 13.1053 33.0924 12.942 33.1297 12.774L34.0957 8.196H32.9757L33.0737 7.762L34.2357 7.482L34.9077 5.774H35.4117L35.0337 7.552H37.1197L36.9797 8.196H34.8937L33.9277 12.76C33.8997 12.9 33.8717 13.0447 33.8437 13.194C33.8251 13.334 33.8157 13.4693 33.8157 13.6C33.8157 13.8613 33.8811 14.0713 34.0117 14.23C34.1517 14.3887 34.3711 14.468 34.6697 14.468C34.8657 14.468 35.0477 14.454 35.2157 14.426C35.3837 14.3887 35.5471 14.342 35.7057 14.286V14.93C35.5751 14.9767 35.4071 15.0233 35.2017 15.07C35.0057 15.1167 34.7957 15.14 34.5717 15.14ZM37.1661 15L38.7481 7.552H39.4061L39.1261 9.218H39.1821C39.3501 8.95667 39.5508 8.69067 39.7841 8.42C40.0268 8.14 40.3068 7.90667 40.6241 7.72C40.9414 7.524 41.2961 7.426 41.6881 7.426C41.8374 7.426 41.9821 7.43533 42.1221 7.454C42.2621 7.47267 42.3928 7.50067 42.5141 7.538L42.3321 8.252C42.2294 8.224 42.1174 8.20067 41.9961 8.182C41.8748 8.16333 41.7441 8.154 41.6041 8.154C41.2681 8.154 40.9461 8.24733 40.6381 8.434C40.3301 8.61133 40.0454 8.854 39.7841 9.162C39.5321 9.46067 39.3128 9.806 39.1261 10.198C38.9394 10.59 38.8041 10.996 38.7201 11.416L37.9641 15H37.1661ZM44.5757 15.14C44.1464 15.14 43.7777 15.0373 43.4697 14.832C43.171 14.6267 42.9424 14.328 42.7837 13.936C42.625 13.544 42.5457 13.0773 42.5457 12.536C42.5457 12.032 42.597 11.5327 42.6997 11.038C42.8117 10.5433 42.9704 10.0767 43.1757 9.638C43.381 9.19933 43.633 8.81667 43.9317 8.49C44.2397 8.154 44.5897 7.89267 44.9817 7.706C45.3737 7.51 45.7984 7.412 46.2557 7.412C46.6384 7.412 46.9604 7.49133 47.2217 7.65C47.483 7.80867 47.6884 8.00933 47.8377 8.252C47.9964 8.48533 48.113 8.728 48.1877 8.98H48.2437L48.6497 7.552H49.2657L47.6837 15H47.0537L47.3337 13.334H47.2917C47.105 13.6047 46.8764 13.88 46.6057 14.16C46.335 14.44 46.027 14.6733 45.6817 14.86C45.3457 15.0467 44.977 15.14 44.5757 15.14ZM44.7997 14.454C45.1824 14.454 45.5697 14.314 45.9617 14.034C46.3537 13.754 46.7037 13.376 47.0117 12.9C47.3197 12.424 47.5437 11.8873 47.6837 11.29C47.749 11.01 47.791 10.7627 47.8097 10.548C47.8377 10.3333 47.8517 10.1327 47.8517 9.946C47.8517 9.37667 47.7117 8.92867 47.4317 8.602C47.161 8.266 46.7877 8.098 46.3117 8.098C45.9477 8.098 45.6117 8.182 45.3037 8.35C44.9957 8.518 44.7204 8.74667 44.4777 9.036C44.235 9.32533 44.0297 9.66133 43.8617 10.044C43.703 10.4173 43.577 10.8187 43.4837 11.248C43.3997 11.6773 43.3577 12.1113 43.3577 12.55C43.3577 13.1567 43.479 13.628 43.7217 13.964C43.9644 14.2907 44.3237 14.454 44.7997 14.454ZM50.0587 15L51.6407 7.552H52.2987L52.0187 9.218H52.0747C52.2427 8.95667 52.4433 8.69067 52.6767 8.42C52.9193 8.14 53.1993 7.90667 53.5167 7.72C53.834 7.524 54.1887 7.426 54.5807 7.426C54.73 7.426 54.8747 7.43533 55.0147 7.454C55.1547 7.47267 55.2853 7.50067 55.4067 7.538L55.2247 8.252C55.122 8.224 55.01 8.20067 54.8887 8.182C54.7673 8.16333 54.6367 8.154 54.4967 8.154C54.1607 8.154 53.8387 8.24733 53.5307 8.434C53.2227 8.61133 52.938 8.854 52.6767 9.162C52.4247 9.46067 52.2053 9.806 52.0187 10.198C51.832 10.59 51.6967 10.996 51.6127 11.416L50.8567 15H50.0587Z" fill="black"/>
<path d="M2.66667 10C2.66667 10.7364 3.26362 11.3333 4 11.3333C4.73638 11.3333 5.33333 10.7364 5.33333 10C5.33333 9.26362 4.73638 8.66667 4 8.66667C3.26362 8.66667 2.66667 9.26362 2.66667 10ZM4 10.25L10 10.25V9.75L4 9.75V10.25Z" fill="black"/>
<path d="M5.33333 10C5.33333 9.26362 4.73638 8.66667 4 8.66667C3.26362 8.66667 2.66667 9.26362 2.66667 10C2.66667 10.7364 3.26362 11.3333 4 11.3333C4.73638 11.3333 5.33333 10.7364 5.33333 10ZM4 9.75H1V10.25H4V9.75Z" fill="black"/>
<path d="M0.666667 14C0.666667 14.7364 1.26362 15.3333 2 15.3333C2.73638 15.3333 3.33333 14.7364 3.33333 14C3.33333 13.2636 2.73638 12.6667 2 12.6667C1.26362 12.6667 0.666667 13.2636 0.666667 14ZM2 14.25L10 14.25V13.75L2 13.75V14.25Z" fill="black"/>
<path d="M0.666667 6C0.666667 6.73638 1.26362 7.33333 2 7.33333C2.73638 7.33333 3.33333 6.73638 3.33333 6C3.33333 5.26362 2.73638 4.66667 2 4.66667C1.26362 4.66667 0.666667 5.26362 0.666667 6ZM2 6.25H10V5.75H2V6.25Z" fill="black"/>
</svg>
